{"title":"The.Kids.Are.All.Right.720p.BRRIP.H264.Feel-Free","uid":5934055,"size":1827390658,"categoryP":"video","categoryS":"hd___movies","magnet":"?xt=urn:btih:e6272674f4236f19e936804531bc5a1e9cc1f9e3&amp;dn=The.Kids.Are.All.Right.720p.BRRIP.H264.Feel-Free&amp;tr=udp%3A%2F%2Ftracker.openbittorrent.com%3A80&amp;tr=udp%3A%2F%2Fopen.demonii.com%3A1337&amp;tr=udp%3A%2F%2Ftracker.coppersurfer.tk%3A6969&amp;tr=udp%3A%2F%2Fexodus.desync.com%3A6969","seeders":1,"leechers":0,"uploader":"deffjam555","files":8,"time":1288886834,"description":"cover\n &lt;a href=&quot;\nhttp://www.flix66.com/wp-content/uploads/2010/09/kids-are-alright-Blu-ray.jpg&quot; rel=&quot;nofollow&quot; target=&quot;_NEW&quot;&gt;\nhttp://www.flix66.com/wp-content/uploads/2010/09/kids-are-alright-Blu-ray.jpg&lt;/a&gt;\n\nGenre:Comedy | Drama\nLanguage:English\nIMDb:http://www.imdb.com/title/tt0842926/\nSource:720p.Bluray.x264.CBGB\n\nComplete name :The.Kids.Are.All.Right.720p.BRRIP.H264.Feel-Free\nFormat : MPEG-4\nFormat profile : Base Media\nCodec ID : isom\nFile size : 1.70 GiB\nDuration : 1h 46mn\nOverall bit rate : 2 288 Kbps\nVideo #1\nCodec ID : avc1\nCodec ID/Info : Advanced Video Coding\nDuration : 1h 46mn\nBit rate mode : Variable\nBit rate : 1 964 Kbps\nWidth : 1 280 pixels\nHeight : 696 pixels\nDisplay aspect ratio : 16:9\nFrame rate mode : Constant\nFrame rate : 23.976 fps\nResolution : 24 bits\nColorimetry : 4:2:0\nScan type : Progressive\nBits/(Pixel*Frame) : 0.092\nStream size : 1.46 GiB (86%)\nAudio #2\nID : 2\nFormat : AAC\nFormat/Info : Advanced Audio Codec\nFormat version : Version 4\nFormat profile : LC\nFormat settings, SBR : No\nCodec ID : 40\nDuration : 1h 46mn\nBit rate mode : Variable\nBit rate : 320 Kbps\nChannel(s) : 6 channels\nChannel positions : Front: L C R, Rear: L R, LFE\nSampling rate : 48.0 KHz\nResolution : 16 bits\nStream size : 243 MiB (14%)\n\nPlot:\nTwo children conceived by artificial insemination bring their birth father into their family life.\n\n\nscreens\n &lt;a href=&quot;\nhttp://rapidhdd.com/images/81537vlcsnap-2010-11-04-16h35m46s7.png&quot; rel=&quot;nofollow&quot; target=&quot;_NEW&quot;&gt;\nhttp://rapidhdd.com/images/81537vlcsnap-2010-11-04-16h35m46s7.png&lt;/a&gt; &lt;a href=&quot;\nhttp://www.rapidhdd.com/images/815866vlcsnap-2010-11-04-16h36m02s157.png&quot; rel=&quot;nofollow&quot; target=&quot;_NEW&quot;&gt;\nhttp://www.rapidhdd.com/images/815866vlcsnap-2010-11-04-16h36m02s157.png&lt;/a&gt; &lt;a href=&quot;\nhttp://rapidhdd.com/images/746546vlcsnap-2010-11-04-16h35m50s67.png&quot; rel=&quot;nofollow&quot; target=&quot;_NEW&quot;&gt;\nhttp://rapidhdd.com/images/746546vlcsnap-2010-11-04-16h35m50s67.png&lt;/a&gt;","torrent":{"xt":"urn:btih:e6272674f4236f19e936804531bc5a1e9cc1f9e3","amp;dn":"The.Kids.Are.All.Right.720p.BRRIP.H264.Feel-Free","amp;tr":["udp%3A%2F%2Ftracker.openbittorrent.com%3A80","udp%3A%2F%2Fopen.demonii.com%3A1337","udp%3A%2F%2Ftracker.coppersurfer.tk%3A6969","udp%3A%2F%2Fexodus.desync.com%3A6969"],"infoHash":"e6272674f4236f19e936804531bc5a1e9cc1f9e3","infoHashBuffer":{"type":"Buffer","data":[230,39,38,116,244,35,111,25,233,54,128,69,49,188,90,30,156,193,249,227]},"announce":[],"urlList":[]}}